<svg width="625" height="483" viewBox="0 0 625 483" fill="none" xmlns="http://www.w3.org/2000/svg">
<path d="M327.146 26.4034C322.845 23.0582 316.872 23.0582 312.571 26.4034C289.871 43.7269 222.847 100.237 223.206 166.066C223.206 219.35 266.574 262.838 319.978 262.838C373.382 262.838 416.75 219.47 416.75 166.185C416.87 101.312 349.726 43.8463 327.146 26.4034Z" fill="#520230"/>
<path d="M416.508 169.65C416.269 176.938 415.193 184.106 413.282 191.036L328.815 232.134V262.48C325.829 262.719 322.842 262.838 319.855 262.838C316.868 262.838 313.881 262.719 310.895 262.48V27.5982C311.492 27.1203 311.97 26.7619 312.448 26.4034C316.868 23.0582 322.842 23.0582 327.143 26.4034C327.621 26.7619 328.218 27.2397 328.815 27.7176V92.7103L373.976 70.7275C377.918 75.2674 381.622 79.9268 385.325 84.8252C384.848 85.303 384.37 85.6615 383.772 85.9004L328.815 112.662V152.446L403.963 115.888C404.083 115.888 404.083 115.768 404.202 115.768C406.83 121.145 409.1 126.64 410.892 132.375L328.815 172.398V212.182L407.906 173.712L416.508 169.65Z" fill="white"/>
<path d="M543.508 447.837V444.441H592.026V447.837H543.508ZM574.294 367.552L613.078 479.453H625V482.924H578.897V479.453H593.61L564.635 389.887L533.397 479.453H548.941V482.924H515.665V479.453H529.398L568.861 367.552H574.294Z" fill="#520230"/>
<path d="M452.337 482.916V479.445H465.919V428.513L432.191 373.203H420.57V369.732H466.9V373.203H451.734L480.935 421.948L509.986 373.203H494.517V369.732H525.228V373.203H513.985L482.821 425.343V479.445H497.988V482.916H452.337Z" fill="#520230"/>
<path d="M348.678 447.837V444.441H397.196V447.837H348.678ZM379.464 367.552L418.248 479.453H430.17V482.924H384.067V479.453H398.78L369.805 389.887L338.567 479.453H354.111V482.924H320.834V479.453H334.567L374.031 367.552H379.464Z" fill="#520230"/>
<path d="M304.441 443.302C304.189 439.932 303.384 437.14 302.026 434.926C300.718 432.713 298.706 431.078 295.99 430.022C293.324 428.915 289.878 428.362 285.652 428.362H275.767V424.891H285.652C289.878 424.891 293.324 424.413 295.99 423.457C298.706 422.501 300.718 420.992 302.026 418.93C303.384 416.867 304.189 414.151 304.441 410.78H307.912V443.302H304.441ZM330.096 369.732V400.669H326.625C326.424 395.287 325.468 390.533 323.757 386.408C322.097 382.233 319.482 378.988 315.91 376.674C312.389 374.36 307.71 373.203 301.875 373.203H279.918V479.445H294.933V482.916H249.358V479.445H263.015V373.203H249.358V369.732H330.096Z" fill="#520230"/>
<path d="M118.489 482.916V479.445H132.147V373.203H118.489V369.732H162.556V373.203H149.049V479.445H169.95C175.785 479.445 180.514 478.766 184.136 477.408C187.808 475.999 190.65 473.987 192.662 471.372C194.675 468.756 196.083 465.561 196.888 461.789C197.693 458.016 198.171 453.74 198.322 448.961H201.868V482.916H118.489Z" fill="#520230"/>
<path d="M27.8432 447.837V444.441H76.3614V447.837H27.8432ZM58.6292 367.552L97.4136 479.453H109.336V482.924H63.2321V479.453H77.946L48.9709 389.887L17.7321 479.453H33.2761V482.924H0V479.453H13.733L53.1964 367.552H58.6292Z" fill="#520230"/>
</svg>
