<svg width="625" height="360" viewBox="0 0 625 360" fill="none" xmlns="http://www.w3.org/2000/svg">
<path d="M4.93799 275.476H622.318V282.178H4.93799V275.476Z" fill="white"/>
<path d="M625 1.34082V8.04338C620.532 9.16047 615.728 12.1766 610.589 17.0918C605.674 22.0071 601.094 29.9384 596.849 40.8859L520.775 239.952C519.881 239.952 518.988 239.952 518.094 239.952C517.2 239.952 516.195 239.952 515.078 239.952C514.184 239.952 513.291 239.952 512.397 239.952C511.503 239.952 510.609 239.952 509.716 239.952L426.604 29.4916C423.253 21.2251 419.566 15.6396 415.545 12.7352C411.523 9.83073 407.725 8.2668 404.15 8.04338V1.34082C409.289 1.56424 415.545 1.78765 422.918 2.01107C430.514 2.23448 437.887 2.34619 445.036 2.34619C454.196 2.34619 462.798 2.23448 470.841 2.01107C479.107 1.78765 485.698 1.56424 490.613 1.34082V8.04338C483.241 8.2668 477.543 9.16047 473.522 10.7244C469.5 12.2883 467.266 15.0811 466.819 19.1026C466.596 22.9007 467.936 28.5979 470.841 36.1942L532.84 198.061L526.807 204.764L581.098 61.999C586.237 48.3705 588.806 37.7581 588.806 30.1618C588.806 22.3422 586.348 16.7567 581.433 13.4054C576.518 10.0541 569.369 8.2668 559.985 8.04338V1.34082C566.911 1.56424 573.725 1.78765 580.428 2.01107C587.13 2.23448 593.498 2.34619 599.53 2.34619C605.116 2.34619 609.919 2.23448 613.941 2.01107C617.962 1.78765 621.649 1.56424 625 1.34082Z" fill="white"/>
<path d="M397.732 1.34082C396.838 10.2776 396.168 18.9909 395.721 27.4808C395.498 35.9707 395.386 42.4499 395.386 46.9183C395.386 52.0569 395.498 56.9721 395.721 61.6639C395.945 66.3557 396.168 70.3772 396.391 73.7285H388.684C386.673 57.419 383.88 44.6841 380.305 35.5239C376.954 26.1403 371.815 19.4377 364.889 15.4162C357.963 11.1712 348.021 9.04875 335.063 9.04875H317.301C310.152 9.04875 304.678 9.71901 300.88 11.0595C297.305 12.1766 294.848 14.6342 293.507 18.4324C292.167 22.0071 291.496 27.7042 291.496 35.5239V202.418C291.496 210.684 292.39 216.94 294.177 221.185C295.965 225.206 299.316 227.888 304.231 229.228C309.146 230.569 316.408 231.351 326.015 231.574V238.612C319.982 238.165 312.163 237.941 302.556 237.941C292.949 237.718 283.006 237.606 272.729 237.606C263.792 237.606 255.191 237.718 246.924 237.941C238.881 237.941 232.067 238.165 226.481 238.612V231.909C234.078 231.462 239.775 230.569 243.573 229.228C247.371 227.888 249.829 225.206 250.946 221.185C252.286 217.163 252.957 211.131 252.957 203.088V36.8644C252.957 28.5979 252.286 22.5656 250.946 18.7675C249.829 14.7459 247.259 12.0649 243.238 10.7244C239.44 9.16047 233.854 8.2668 226.481 8.04338V1.34082C235.195 1.56424 244.243 1.78765 253.627 2.01107C263.234 2.01107 272.617 2.12278 281.778 2.34619C291.161 2.34619 299.875 2.34619 307.918 2.34619C315.961 2.34619 322.552 2.34619 327.69 2.34619C337.967 2.34619 349.585 2.34619 362.544 2.34619C375.725 2.12278 387.455 1.78765 397.732 1.34082ZM346.457 118.636C346.457 118.636 346.457 119.753 346.457 121.987C346.457 124.221 346.457 125.338 346.457 125.338H281.442C281.442 125.338 281.442 124.221 281.442 121.987C281.442 119.753 281.442 118.636 281.442 118.636H346.457ZM353.495 74.3988C352.601 87.1337 352.155 96.8524 352.155 103.555C352.378 110.258 352.49 116.402 352.49 121.987C352.49 127.572 352.601 133.716 352.825 140.419C353.048 147.122 353.607 156.84 354.5 169.575H346.793C345.899 162.202 344.558 155.165 342.771 148.462C340.984 141.536 337.744 135.951 333.052 131.706C328.36 127.461 321.323 125.338 311.939 125.338V118.636C319.089 118.636 324.674 117.183 328.696 114.279C332.941 111.375 336.18 107.576 338.414 102.885C340.648 98.1929 342.212 93.3894 343.106 88.4742C344.223 83.3355 345.117 78.6437 345.787 74.3988H353.495Z" fill="white"/>
<path d="M118.213 0L199.984 210.461C203.112 218.727 206.687 224.313 210.708 227.217C214.953 230.121 218.863 231.685 222.438 231.909V238.611C217.076 238.165 210.708 237.941 203.336 237.941C196.186 237.718 188.925 237.606 181.552 237.606C172.169 237.606 163.455 237.718 155.412 237.941C147.369 237.941 140.89 238.165 135.975 238.611V231.909C147.369 231.462 154.519 229.563 157.423 226.212C160.551 222.637 159.881 215.152 155.412 203.758L95.0892 40.8856L100.451 34.8533L44.8199 180.299C40.7984 190.353 38.3408 198.731 37.4471 205.434C36.7768 212.136 37.3354 217.387 39.1227 221.185C41.1335 224.983 44.4848 227.664 49.1766 229.228C53.8684 230.792 59.6773 231.685 66.6033 231.909V238.611C59.9007 238.165 53.0864 237.941 46.1604 237.941C39.4579 237.718 33.0904 237.606 27.0581 237.606C21.6961 237.606 16.8926 237.718 12.6476 237.941C8.62607 237.941 4.93966 238.165 1.58838 238.611V231.909C6.28018 230.792 10.972 227.999 15.6638 223.531C20.3556 219.062 24.8239 211.466 29.0689 200.742L106.819 0C108.606 0 110.505 0 112.516 0C114.527 0 116.426 0 118.213 0ZM153.401 142.094V148.797H53.5333L56.8845 142.094H153.401Z" fill="white"/>
<path d="M607.593 308.437C610.039 308.437 612.041 308.807 613.598 309.549C615.192 310.253 616.6 311.087 617.823 312.051C618.565 312.607 619.121 312.681 619.491 312.273C619.899 311.828 620.177 310.809 620.325 309.215H621.604C621.53 310.586 621.475 312.254 621.437 314.219C621.4 316.184 621.382 318.778 621.382 322.003H620.103C619.844 320.409 619.603 319.149 619.38 318.222C619.158 317.258 618.88 316.443 618.546 315.776C618.25 315.109 617.842 314.441 617.323 313.774C616.174 312.254 614.728 311.161 612.986 310.494C611.244 309.789 609.409 309.437 607.482 309.437C605.666 309.437 604.016 309.901 602.533 310.827C601.088 311.717 599.827 313.014 598.753 314.719C597.715 316.424 596.899 318.482 596.306 320.891C595.75 323.3 595.472 326.006 595.472 329.009C595.472 332.122 595.787 334.884 596.417 337.293C597.047 339.665 597.919 341.667 599.031 343.298C600.18 344.929 601.514 346.171 603.034 347.023C604.591 347.839 606.259 348.246 608.038 348.246C609.706 348.246 611.448 347.913 613.264 347.246C615.08 346.578 616.508 345.503 617.545 344.021C618.361 342.946 618.917 341.778 619.213 340.518C619.547 339.258 619.844 337.497 620.103 335.236H621.382C621.382 338.609 621.4 341.333 621.437 343.409C621.475 345.448 621.53 347.171 621.604 348.58H620.325C620.177 346.986 619.918 345.985 619.547 345.578C619.213 345.17 618.639 345.225 617.823 345.744C616.452 346.708 614.988 347.561 613.431 348.302C611.911 349.006 609.947 349.358 607.537 349.358C604.016 349.358 600.921 348.561 598.252 346.968C595.62 345.374 593.563 343.076 592.08 340.073C590.635 337.071 589.912 333.457 589.912 329.231C589.912 325.08 590.672 321.447 592.192 318.333C593.711 315.22 595.787 312.792 598.419 311.05C601.088 309.308 604.146 308.437 607.593 308.437Z" fill="#71717A"/>
<path d="M570.792 309.213V310.325C569.532 310.362 568.568 310.51 567.901 310.77C567.271 310.992 566.845 311.437 566.622 312.104C566.4 312.734 566.289 313.735 566.289 315.107V342.684C566.289 344.019 566.4 345.02 566.622 345.687C566.845 346.354 567.271 346.799 567.901 347.021C568.568 347.206 569.532 347.299 570.792 347.299H574.851C576.593 347.299 578.002 347.114 579.077 346.743C580.189 346.372 581.06 345.798 581.69 345.02C582.357 344.204 582.858 343.129 583.191 341.795C583.525 340.46 583.784 338.829 583.97 336.902H585.248C585.137 338.051 585.082 339.571 585.082 341.461C585.082 342.165 585.1 343.185 585.137 344.519C585.211 345.816 585.323 347.169 585.471 348.578C583.58 348.504 581.449 348.467 579.077 348.467C576.705 348.43 574.592 348.411 572.738 348.411C571.923 348.411 570.866 348.411 569.569 348.411C568.309 348.411 566.937 348.43 565.455 348.467C563.972 348.467 562.471 348.485 560.951 348.522C559.431 348.522 557.986 348.541 556.614 348.578V347.466C557.875 347.392 558.82 347.244 559.45 347.021C560.117 346.799 560.562 346.354 560.784 345.687C561.007 345.02 561.118 344.019 561.118 342.684V315.107C561.118 313.735 561.007 312.734 560.784 312.104C560.562 311.437 560.117 310.992 559.45 310.77C558.82 310.51 557.875 310.362 556.614 310.325V309.213C557.393 309.25 558.412 309.287 559.672 309.324C560.933 309.361 562.286 309.38 563.731 309.38C565.028 309.38 566.307 309.361 567.568 309.324C568.865 309.287 569.94 309.25 570.792 309.213Z" fill="#71717A"/>
<path d="M538.106 309.213V310.325C536.846 310.362 535.882 310.51 535.215 310.77C534.584 310.992 534.158 311.437 533.936 312.104C533.713 312.734 533.602 313.735 533.602 315.107V342.684C533.602 344.019 533.713 345.02 533.936 345.687C534.158 346.354 534.584 346.799 535.215 347.021C535.882 347.206 536.846 347.299 538.106 347.299H542.165C543.907 347.299 545.315 347.114 546.39 346.743C547.502 346.372 548.373 345.798 549.003 345.02C549.671 344.204 550.171 343.129 550.505 341.795C550.838 340.46 551.098 338.829 551.283 336.902H552.562C552.451 338.051 552.395 339.571 552.395 341.461C552.395 342.165 552.414 343.185 552.451 344.519C552.525 345.816 552.636 347.169 552.784 348.578C550.894 348.504 548.763 348.467 546.39 348.467C544.018 348.43 541.905 348.411 540.052 348.411C539.236 348.411 538.18 348.411 536.883 348.411C535.622 348.411 534.251 348.43 532.768 348.467C531.286 348.467 529.784 348.485 528.265 348.522C526.745 348.522 525.299 348.541 523.928 348.578V347.466C525.188 347.392 526.133 347.244 526.763 347.021C527.431 346.799 527.875 346.354 528.098 345.687C528.32 345.02 528.431 344.019 528.431 342.684V315.107C528.431 313.735 528.32 312.734 528.098 312.104C527.875 311.437 527.431 310.992 526.763 310.77C526.133 310.51 525.188 310.362 523.928 310.325V309.213C524.706 309.25 525.725 309.287 526.986 309.324C528.246 309.361 529.599 309.38 531.045 309.38C532.342 309.38 533.621 309.361 534.881 309.324C536.178 309.287 537.253 309.25 538.106 309.213Z" fill="#71717A"/>
<path d="M517.753 332.009V335.234H497.682V332.009H517.753Z" fill="#71717A"/>
<path d="M491.414 309.213V310.325L469.229 347.299H480.127C481.869 347.299 483.278 347.114 484.353 346.743C485.465 346.372 486.336 345.798 486.966 345.02C487.633 344.204 488.133 343.129 488.467 341.795C488.801 340.46 489.06 338.829 489.245 336.902H490.524C490.413 338.051 490.358 339.571 490.358 341.461C490.358 342.165 490.376 343.185 490.413 344.519C490.487 345.816 490.598 347.169 490.747 348.578C489.375 348.504 487.874 348.467 486.243 348.467C484.612 348.43 482.981 348.411 481.35 348.411C479.756 348.411 478.274 348.411 476.902 348.411C474.715 348.411 472.399 348.43 469.952 348.467C467.543 348.467 465.282 348.504 463.169 348.578V347.466L485.52 310.492H474.678C472.936 310.492 471.509 310.677 470.397 311.048C469.322 311.418 468.451 312.011 467.784 312.827C467.154 313.605 466.672 314.662 466.338 315.996C466.005 317.331 465.745 318.961 465.56 320.889H464.281C464.355 320.296 464.392 319.61 464.392 318.832C464.429 318.053 464.448 317.219 464.448 316.33C464.448 315.625 464.411 314.625 464.337 313.327C464.299 311.993 464.207 310.621 464.059 309.213C465.43 309.25 466.931 309.287 468.562 309.324C470.193 309.361 471.824 309.38 473.455 309.38C475.086 309.38 476.569 309.38 477.903 309.38C480.016 309.38 482.277 309.38 484.686 309.38C487.133 309.343 489.375 309.287 491.414 309.213Z" fill="#71717A"/>
<path d="M459.258 309.213C459.11 310.621 458.998 311.993 458.924 313.327C458.887 314.625 458.869 315.625 458.869 316.33C458.869 317.219 458.887 318.053 458.924 318.832C458.961 319.61 458.998 320.296 459.035 320.889H457.757C457.497 318.294 457.145 316.256 456.7 314.773C456.255 313.253 455.477 312.16 454.365 311.493C453.253 310.825 451.529 310.492 449.194 310.492H445.691C444.431 310.492 443.467 310.603 442.8 310.825C442.17 311.011 441.744 311.437 441.521 312.104C441.299 312.734 441.188 313.735 441.188 315.107V342.684C441.188 344.019 441.317 345.02 441.577 345.687C441.873 346.354 442.429 346.799 443.245 347.021C444.06 347.244 445.246 347.392 446.803 347.466V348.578C445.84 348.504 444.616 348.467 443.134 348.467C441.651 348.43 440.15 348.411 438.63 348.411C437.184 348.411 435.831 348.43 434.571 348.467C433.311 348.467 432.292 348.504 431.513 348.578V347.466C432.773 347.392 433.719 347.244 434.349 347.021C435.016 346.799 435.461 346.354 435.683 345.687C435.906 345.02 436.017 344.019 436.017 342.684V315.107C436.017 313.735 435.906 312.734 435.683 312.104C435.461 311.437 435.016 310.992 434.349 310.77C433.719 310.51 432.773 310.362 431.513 310.325V309.213C432.885 309.25 434.33 309.287 435.85 309.324C437.37 309.324 438.871 309.343 440.354 309.38C441.836 309.38 443.208 309.38 444.468 309.38C445.765 309.38 446.822 309.38 447.637 309.38C449.342 309.38 451.27 309.38 453.42 309.38C455.607 309.343 457.553 309.287 459.258 309.213ZM450.64 328.784C450.64 328.784 450.64 328.97 450.64 329.34C450.64 329.711 450.64 329.896 450.64 329.896H439.52C439.52 329.896 439.52 329.711 439.52 329.34C439.52 328.97 439.52 328.784 439.52 328.784H450.64ZM451.696 321.445C451.548 323.558 451.474 325.17 451.474 326.282C451.511 327.394 451.529 328.414 451.529 329.34C451.529 330.267 451.548 331.286 451.585 332.398C451.622 333.51 451.715 335.123 451.863 337.235H450.584C450.436 336.049 450.251 334.9 450.028 333.788C449.843 332.639 449.398 331.712 448.694 331.008C448.026 330.267 446.877 329.896 445.246 329.896V328.784C446.47 328.784 447.396 328.543 448.026 328.061C448.694 327.542 449.176 326.894 449.472 326.115C449.769 325.337 449.973 324.54 450.084 323.725C450.195 322.872 450.306 322.112 450.417 321.445H451.696Z" fill="#71717A"/>
<path d="M402.306 319.11C403.789 319.11 405.068 319.351 406.143 319.833C407.255 320.278 408.052 320.686 408.533 321.056C409.757 322.02 410.517 321.39 410.813 319.166H412.036C411.962 320.204 411.907 321.464 411.869 322.947C411.832 324.392 411.814 326.32 411.814 328.729H410.591C410.368 327.358 409.979 326.023 409.423 324.726C408.904 323.429 408.126 322.354 407.088 321.501C406.087 320.649 404.771 320.222 403.14 320.222C401.917 320.222 400.898 320.574 400.082 321.279C399.267 321.946 398.859 322.947 398.859 324.281C398.859 325.393 399.193 326.357 399.86 327.172C400.527 327.988 401.38 328.748 402.417 329.452C403.492 330.156 404.641 330.916 405.865 331.732C407.236 332.658 408.459 333.585 409.534 334.512C410.646 335.401 411.517 336.402 412.147 337.514C412.815 338.626 413.148 339.923 413.148 341.406C413.148 343.111 412.685 344.557 411.758 345.743C410.869 346.929 409.683 347.837 408.2 348.467C406.717 349.06 405.086 349.357 403.307 349.357C402.417 349.357 401.583 349.264 400.805 349.079C400.027 348.931 399.304 348.727 398.637 348.467C398.229 348.245 397.821 348.023 397.413 347.8C397.043 347.541 396.672 347.3 396.301 347.077C395.931 346.818 395.597 346.855 395.301 347.189C395.004 347.522 394.782 348.115 394.633 348.968H393.41C393.484 347.782 393.54 346.336 393.577 344.631C393.614 342.926 393.633 340.665 393.633 337.848H394.856C395.115 339.886 395.504 341.684 396.023 343.241C396.542 344.798 397.302 346.021 398.303 346.911C399.341 347.763 400.749 348.189 402.529 348.189C403.233 348.189 403.937 348.041 404.641 347.745C405.346 347.411 405.92 346.892 406.365 346.188C406.847 345.483 407.088 344.538 407.088 343.352C407.088 341.721 406.513 340.387 405.364 339.349C404.252 338.274 402.807 337.143 401.027 335.957C399.767 335.068 398.562 334.197 397.413 333.344C396.301 332.454 395.393 331.472 394.689 330.397C393.985 329.285 393.633 327.969 393.633 326.45C393.633 324.782 394.022 323.41 394.8 322.335C395.616 321.26 396.691 320.463 398.025 319.944C399.359 319.388 400.786 319.11 402.306 319.11Z" fill="#71717A"/>
<path d="M377.685 319.11C380.947 319.11 383.504 320.093 385.358 322.057C387.211 324.022 388.138 327.135 388.138 331.398H368.956L368.844 330.342H382.244C382.281 328.525 382.133 326.857 381.799 325.338C381.466 323.781 380.947 322.539 380.243 321.612C379.538 320.686 378.612 320.222 377.463 320.222C375.869 320.222 374.479 321.075 373.292 322.78C372.143 324.448 371.439 327.135 371.18 330.842L371.346 331.12C371.309 331.639 371.272 332.213 371.235 332.844C371.198 333.437 371.18 334.03 371.18 334.623C371.18 337.18 371.569 339.33 372.347 341.072C373.126 342.815 374.145 344.131 375.405 345.02C376.666 345.873 377.944 346.299 379.242 346.299C380.243 346.299 381.206 346.151 382.133 345.854C383.097 345.521 384.005 344.983 384.857 344.242C385.71 343.463 386.47 342.407 387.137 341.072L388.249 341.517C387.804 342.778 387.118 344.019 386.192 345.243C385.265 346.466 384.079 347.467 382.633 348.245C381.188 348.986 379.501 349.357 377.574 349.357C374.979 349.357 372.718 348.782 370.79 347.633C368.863 346.447 367.38 344.761 366.342 342.574C365.305 340.387 364.786 337.792 364.786 334.79C364.786 331.491 365.323 328.674 366.398 326.338C367.473 324.003 368.974 322.224 370.902 321.001C372.866 319.74 375.127 319.11 377.685 319.11Z" fill="#71717A"/>
<path d="M357.634 319.11C358.709 319.11 359.617 319.333 360.359 319.778C361.137 320.222 361.712 320.797 362.082 321.501C362.49 322.168 362.694 322.928 362.694 323.781C362.694 324.856 362.36 325.782 361.693 326.561C361.063 327.302 360.21 327.673 359.135 327.673C358.209 327.673 357.412 327.395 356.745 326.839C356.115 326.283 355.799 325.523 355.799 324.559C355.799 323.744 356.003 323.058 356.411 322.502C356.856 321.909 357.356 321.446 357.912 321.112C357.542 320.815 357.097 320.686 356.578 320.723C355.577 320.76 354.65 321.093 353.798 321.724C352.945 322.317 352.223 323.095 351.629 324.059C351.036 324.985 350.573 325.986 350.239 327.061C349.906 328.136 349.739 329.137 349.739 330.064V342.852C349.739 344.668 350.239 345.891 351.24 346.521C352.241 347.114 353.631 347.411 355.41 347.411V348.579C354.558 348.541 353.335 348.504 351.741 348.467C350.184 348.393 348.534 348.356 346.792 348.356C345.458 348.356 344.123 348.393 342.789 348.467C341.455 348.504 340.435 348.541 339.731 348.579V347.411C341.177 347.411 342.196 347.133 342.789 346.577C343.419 346.021 343.734 344.965 343.734 343.408V325.949C343.734 324.281 343.456 323.058 342.9 322.28C342.344 321.464 341.288 321.056 339.731 321.056V319.889C340.917 320 342.066 320.056 343.178 320.056C344.438 320.056 345.606 320 346.681 319.889C347.793 319.74 348.812 319.537 349.739 319.277V325.671C350.184 324.596 350.777 323.558 351.518 322.558C352.26 321.557 353.149 320.741 354.187 320.111C355.225 319.444 356.374 319.11 357.634 319.11Z" fill="#71717A"/>
<path d="M333.068 319.276V342.573C333.068 344.241 333.346 345.483 333.902 346.298C334.495 347.077 335.551 347.466 337.071 347.466V348.633C335.922 348.522 334.773 348.467 333.624 348.467C332.401 348.467 331.233 348.522 330.121 348.633C329.009 348.745 327.99 348.948 327.063 349.245V343.185C326.136 345.409 324.839 347.002 323.171 347.966C321.54 348.893 319.817 349.356 318 349.356C316.629 349.356 315.461 349.152 314.497 348.745C313.534 348.374 312.737 347.873 312.107 347.243C311.439 346.502 310.976 345.557 310.717 344.408C310.457 343.222 310.327 341.739 310.327 339.96V325.948C310.327 324.28 310.049 323.057 309.493 322.279C308.937 321.463 307.881 321.056 306.324 321.056V319.888C307.51 319.999 308.659 320.055 309.771 320.055C310.995 320.055 312.162 319.999 313.274 319.888C314.386 319.74 315.406 319.536 316.332 319.276V341.517C316.332 342.591 316.406 343.574 316.555 344.463C316.703 345.353 317.055 346.057 317.611 346.576C318.167 347.095 319.057 347.355 320.28 347.355C321.577 347.355 322.726 346.965 323.727 346.187C324.765 345.409 325.58 344.352 326.174 343.018C326.767 341.683 327.063 340.182 327.063 338.514V325.948C327.063 324.28 326.785 323.057 326.229 322.279C325.673 321.463 324.617 321.056 323.06 321.056V319.888C324.246 319.999 325.395 320.055 326.507 320.055C327.73 320.055 328.898 319.999 330.01 319.888C331.122 319.74 332.141 319.536 333.068 319.276Z" fill="#71717A"/>
<path d="M297.121 310.716V319.945H304.793V321.057H297.121V342.908C297.121 344.428 297.399 345.503 297.955 346.133C298.511 346.763 299.308 347.078 300.345 347.078C301.309 347.078 302.162 346.689 302.903 345.911C303.681 345.132 304.349 343.817 304.905 341.963L305.961 342.352C305.516 344.317 304.719 345.985 303.57 347.356C302.458 348.691 300.809 349.358 298.622 349.358C297.362 349.358 296.305 349.191 295.453 348.858C294.6 348.561 293.859 348.116 293.229 347.523C292.413 346.671 291.857 345.651 291.561 344.465C291.264 343.279 291.116 341.704 291.116 339.739V321.057H286V319.945H291.116V311.828C292.265 311.791 293.34 311.698 294.341 311.55C295.341 311.364 296.268 311.086 297.121 310.716Z" fill="#71717A"/>
<path d="M273.236 319.11C274.718 319.11 275.923 319.314 276.85 319.722C277.813 320.093 278.61 320.612 279.24 321.279C279.908 321.983 280.371 322.891 280.63 324.003C280.927 325.115 281.075 326.616 281.075 328.507V343.408C281.075 344.965 281.372 346.021 281.965 346.577C282.595 347.133 283.633 347.411 285.078 347.411V348.579C284.448 348.541 283.466 348.504 282.132 348.467C280.797 348.393 279.481 348.356 278.184 348.356C276.924 348.356 275.664 348.393 274.403 348.467C273.18 348.504 272.253 348.541 271.623 348.579V347.411C272.884 347.411 273.773 347.133 274.292 346.577C274.811 346.021 275.07 344.965 275.07 343.408V326.95C275.07 325.875 274.978 324.911 274.792 324.059C274.607 323.169 274.218 322.465 273.625 321.946C273.032 321.39 272.142 321.112 270.956 321.112C269.585 321.112 268.361 321.501 267.286 322.28C266.249 323.058 265.415 324.133 264.784 325.504C264.191 326.839 263.895 328.34 263.895 330.008V343.408C263.895 344.965 264.154 346.021 264.673 346.577C265.229 347.133 266.119 347.411 267.342 347.411V348.579C266.749 348.541 265.841 348.504 264.618 348.467C263.431 348.393 262.19 348.356 260.892 348.356C259.632 348.356 258.316 348.393 256.945 348.467C255.573 348.504 254.554 348.541 253.887 348.579V347.411C255.332 347.411 256.352 347.133 256.945 346.577C257.575 346.021 257.89 344.965 257.89 343.408V325.949C257.89 324.281 257.612 323.058 257.056 322.28C256.5 321.464 255.444 321.056 253.887 321.056V319.889C255.073 320 256.222 320.056 257.334 320.056C258.594 320.056 259.762 320 260.837 319.889C261.949 319.74 262.968 319.537 263.895 319.277V325.338C264.859 323.039 266.174 321.427 267.842 320.5C269.547 319.574 271.345 319.11 273.236 319.11Z" fill="#71717A"/>
<path d="M239.716 319.11C242.978 319.11 245.535 320.093 247.389 322.057C249.242 324.022 250.169 327.135 250.169 331.398H230.986L230.875 330.342H244.275C244.312 328.525 244.164 326.857 243.83 325.338C243.496 323.781 242.978 322.539 242.273 321.612C241.569 320.686 240.642 320.222 239.493 320.222C237.899 320.222 236.509 321.075 235.323 322.78C234.174 324.448 233.47 327.135 233.21 330.842L233.377 331.12C233.34 331.639 233.303 332.213 233.266 332.844C233.229 333.437 233.21 334.03 233.21 334.623C233.21 337.18 233.6 339.33 234.378 341.072C235.156 342.815 236.176 344.131 237.436 345.02C238.696 345.873 239.975 346.299 241.272 346.299C242.273 346.299 243.237 346.151 244.164 345.854C245.127 345.521 246.036 344.983 246.888 344.242C247.741 343.463 248.501 342.407 249.168 341.072L250.28 341.517C249.835 342.778 249.149 344.019 248.223 345.243C247.296 346.466 246.11 347.467 244.664 348.245C243.218 348.986 241.532 349.357 239.604 349.357C237.01 349.357 234.749 348.782 232.821 347.633C230.894 346.447 229.411 344.761 228.373 342.574C227.335 340.387 226.816 337.792 226.816 334.79C226.816 331.491 227.354 328.674 228.429 326.338C229.504 324.003 231.005 322.224 232.932 321.001C234.897 319.74 237.158 319.11 239.716 319.11Z" fill="#71717A"/>
<path d="M228.313 309.213V310.325C227.572 310.51 226.775 311.011 225.922 311.826C225.107 312.642 224.347 313.957 223.643 315.774L211.021 348.8C210.873 348.8 210.725 348.8 210.576 348.8C210.428 348.8 210.261 348.8 210.076 348.8C209.928 348.8 209.78 348.8 209.631 348.8C209.483 348.8 209.335 348.8 209.186 348.8L195.398 313.883C194.842 312.512 194.23 311.585 193.563 311.103C192.896 310.621 192.265 310.362 191.672 310.325V309.213C192.525 309.25 193.563 309.287 194.786 309.324C196.046 309.361 197.269 309.38 198.456 309.38C199.975 309.38 201.402 309.361 202.737 309.324C204.108 309.287 205.202 309.25 206.017 309.213V310.325C204.794 310.362 203.849 310.51 203.182 310.77C202.514 311.029 202.144 311.493 202.07 312.16C202.033 312.79 202.255 313.735 202.737 314.995L213.023 341.85L212.022 342.962L221.029 319.277C221.882 317.015 222.308 315.255 222.308 313.995C222.308 312.697 221.9 311.771 221.085 311.214C220.269 310.658 219.083 310.362 217.527 310.325V309.213C218.676 309.25 219.806 309.287 220.918 309.324C222.03 309.361 223.087 309.38 224.087 309.38C225.014 309.38 225.811 309.361 226.478 309.324C227.145 309.287 227.757 309.25 228.313 309.213Z" fill="#71717A"/>
<path d="M162.31 348.968C160.754 348.968 159.419 348.671 158.307 348.078C157.195 347.485 156.361 346.67 155.805 345.632C155.249 344.594 154.971 343.408 154.971 342.073C154.971 340.442 155.342 339.126 156.083 338.126C156.825 337.088 157.77 336.254 158.919 335.624C160.105 334.994 161.347 334.475 162.644 334.067C163.978 333.622 165.22 333.214 166.369 332.844C167.555 332.436 168.519 331.973 169.26 331.454C170.039 330.935 170.428 330.249 170.428 329.396V325.616C170.428 324.281 170.206 323.225 169.761 322.446C169.353 321.631 168.779 321.056 168.037 320.723C167.333 320.389 166.48 320.222 165.48 320.222C164.627 320.222 163.719 320.352 162.755 320.612C161.792 320.834 161.032 321.297 160.476 322.002C161.291 322.224 161.958 322.669 162.477 323.336C163.033 323.966 163.311 324.763 163.311 325.727C163.311 326.765 162.959 327.58 162.255 328.173C161.588 328.766 160.735 329.063 159.697 329.063C158.548 329.063 157.696 328.711 157.14 328.006C156.584 327.265 156.306 326.413 156.306 325.449C156.306 324.448 156.547 323.633 157.028 323.002C157.547 322.372 158.215 321.779 159.03 321.223C159.92 320.63 161.05 320.13 162.422 319.722C163.83 319.314 165.387 319.11 167.092 319.11C168.686 319.11 170.057 319.296 171.206 319.666C172.393 320 173.375 320.556 174.153 321.334C175.08 322.187 175.692 323.262 175.988 324.559C176.285 325.819 176.433 327.358 176.433 329.174V344.52C176.433 345.446 176.544 346.114 176.767 346.521C177.026 346.892 177.434 347.077 177.99 347.077C178.36 347.077 178.713 346.985 179.046 346.799C179.417 346.614 179.843 346.336 180.325 345.965L180.881 346.911C180.103 347.541 179.306 348.041 178.49 348.412C177.712 348.782 176.711 348.968 175.488 348.968C174.302 348.968 173.338 348.782 172.596 348.412C171.855 348.041 171.299 347.504 170.928 346.799C170.595 346.095 170.428 345.224 170.428 344.186C169.464 345.743 168.315 346.929 166.981 347.745C165.646 348.56 164.09 348.968 162.31 348.968ZM164.979 346.299C166.017 346.299 166.981 346.002 167.87 345.409C168.797 344.816 169.65 343.927 170.428 342.74V331.676C170.02 332.269 169.427 332.788 168.649 333.233C167.87 333.641 167.036 334.067 166.147 334.512C165.257 334.956 164.405 335.475 163.589 336.068C162.811 336.624 162.162 337.347 161.643 338.237C161.124 339.126 160.865 340.257 160.865 341.628C160.865 343.074 161.235 344.223 161.977 345.076C162.718 345.891 163.719 346.299 164.979 346.299Z" fill="#71717A"/>
<path d="M152.913 319.889V321.001C152.209 321.112 151.56 321.483 150.967 322.113C150.374 322.706 149.799 323.744 149.243 325.226L140.57 348.467L139.235 349.802L128.393 324.17C127.689 322.724 127.003 321.853 126.336 321.557C125.706 321.223 125.168 321.056 124.724 321.056V319.889C125.65 320 126.633 320.093 127.67 320.167C128.708 320.204 129.783 320.222 130.895 320.222C132.156 320.222 133.416 320.185 134.676 320.111C135.973 320.037 137.178 319.963 138.29 319.889V321.056C137.401 321.056 136.604 321.13 135.899 321.279C135.232 321.39 134.787 321.742 134.565 322.335C134.38 322.891 134.565 323.855 135.121 325.226L142.015 342.184L141.626 342.351L147.242 327.45C147.798 325.968 148.02 324.782 147.909 323.892C147.798 322.965 147.409 322.279 146.741 321.835C146.074 321.353 145.092 321.075 143.795 321.001V319.889C144.425 319.926 144.999 319.963 145.518 320C146.074 320 146.612 320.018 147.131 320.055C147.649 320.055 148.168 320.055 148.687 320.055C149.503 320.055 150.263 320.037 150.967 320C151.708 319.963 152.357 319.926 152.913 319.889ZM140.57 348.467L138.568 353.694C138.197 354.62 137.808 355.399 137.401 356.029C137.03 356.659 136.622 357.178 136.177 357.586C135.621 358.105 134.936 358.475 134.12 358.698C133.305 358.92 132.489 359.031 131.674 359.031C130.895 359.031 130.154 358.883 129.45 358.587C128.782 358.327 128.226 357.919 127.782 357.363C127.337 356.807 127.114 356.122 127.114 355.306C127.114 354.342 127.43 353.564 128.06 352.971C128.69 352.378 129.524 352.081 130.562 352.081C131.488 352.081 132.267 352.322 132.897 352.804C133.527 353.323 133.842 354.064 133.842 355.028C133.842 355.695 133.657 356.27 133.286 356.752C132.952 357.234 132.508 357.604 131.952 357.864C132.063 357.901 132.174 357.919 132.285 357.919C132.396 357.919 132.489 357.919 132.563 357.919C133.601 357.919 134.528 357.567 135.343 356.863C136.159 356.196 136.845 355.102 137.401 353.582L139.402 348.245L140.57 348.467Z" fill="#71717A"/>
<path d="M106.764 348.968C105.207 348.968 103.873 348.671 102.761 348.078C101.649 347.485 100.815 346.67 100.259 345.632C99.7028 344.594 99.4248 343.408 99.4248 342.073C99.4248 340.442 99.7955 339.126 100.537 338.126C101.278 337.088 102.223 336.254 103.372 335.624C104.559 334.994 105.8 334.475 107.098 334.067C108.432 333.622 109.674 333.214 110.823 332.844C112.009 332.436 112.973 331.973 113.714 331.454C114.492 330.935 114.882 330.249 114.882 329.396V325.616C114.882 324.281 114.659 323.225 114.214 322.446C113.807 321.631 113.232 321.056 112.491 320.723C111.787 320.389 110.934 320.222 109.933 320.222C109.081 320.222 108.173 320.352 107.209 320.612C106.245 320.834 105.485 321.297 104.929 322.002C105.745 322.224 106.412 322.669 106.931 323.336C107.487 323.966 107.765 324.763 107.765 325.727C107.765 326.765 107.413 327.58 106.708 328.173C106.041 328.766 105.189 329.063 104.151 329.063C103.002 329.063 102.149 328.711 101.593 328.006C101.037 327.265 100.759 326.413 100.759 325.449C100.759 324.448 101 323.633 101.482 323.002C102.001 322.372 102.668 321.779 103.484 321.223C104.373 320.63 105.504 320.13 106.875 319.722C108.284 319.314 109.841 319.11 111.546 319.11C113.14 319.11 114.511 319.296 115.66 319.666C116.846 320 117.829 320.556 118.607 321.334C119.534 322.187 120.145 323.262 120.442 324.559C120.738 325.819 120.887 327.358 120.887 329.174V344.52C120.887 345.446 120.998 346.114 121.22 346.521C121.48 346.892 121.887 347.077 122.443 347.077C122.814 347.077 123.166 346.985 123.5 346.799C123.87 346.614 124.297 346.336 124.779 345.965L125.335 346.911C124.556 347.541 123.759 348.041 122.944 348.412C122.165 348.782 121.165 348.968 119.941 348.968C118.755 348.968 117.791 348.782 117.05 348.412C116.309 348.041 115.753 347.504 115.382 346.799C115.048 346.095 114.882 345.224 114.882 344.186C113.918 345.743 112.769 346.929 111.434 347.745C110.1 348.56 108.543 348.968 106.764 348.968ZM109.433 346.299C110.471 346.299 111.434 346.002 112.324 345.409C113.251 344.816 114.103 343.927 114.882 342.74V331.676C114.474 332.269 113.881 332.788 113.102 333.233C112.324 333.641 111.49 334.067 110.6 334.512C109.711 334.956 108.858 335.475 108.043 336.068C107.264 336.624 106.616 337.347 106.097 338.237C105.578 339.126 105.318 340.257 105.318 341.628C105.318 343.074 105.689 344.223 106.43 345.076C107.172 345.891 108.173 346.299 109.433 346.299Z" fill="#71717A"/>
<path d="M96.7282 309.213C96.5799 310.696 96.4687 312.141 96.3946 313.55C96.3575 314.958 96.339 316.033 96.339 316.775C96.339 317.627 96.3575 318.443 96.3946 319.221C96.4316 319.999 96.4687 320.667 96.5058 321.223H95.227C94.8934 318.517 94.43 316.404 93.837 314.884C93.281 313.327 92.4284 312.215 91.2793 311.548C90.1303 310.844 88.4808 310.492 86.3309 310.492H83.3841C82.198 310.492 81.2898 310.603 80.6597 310.825C80.0666 311.011 79.6589 311.418 79.4365 312.049C79.2141 312.642 79.1029 313.587 79.1029 314.884V342.573C79.1029 343.945 79.2511 344.982 79.5477 345.687C79.8442 346.354 80.4002 346.799 81.2157 347.021C82.0312 347.244 83.2358 347.373 84.8297 347.41V348.578C83.8289 348.504 82.5316 348.467 80.9377 348.467C79.3438 348.43 77.6943 348.411 75.9893 348.411C74.5066 348.411 73.0795 348.43 71.708 348.467C70.3736 348.467 69.2431 348.504 68.3164 348.578V347.466C69.5767 347.392 70.5219 347.244 71.152 347.021C71.7822 346.799 72.1899 346.354 72.3752 345.687C72.5976 345.02 72.7088 344.019 72.7088 342.684V315.107C72.7088 313.735 72.5976 312.734 72.3752 312.104C72.1899 311.437 71.7636 310.992 71.0964 310.77C70.4663 310.51 69.5396 310.362 68.3164 310.325V309.213C69.762 309.25 71.2632 309.287 72.82 309.324C74.4139 309.324 75.9707 309.343 77.4905 309.38C79.0473 309.38 80.4929 309.38 81.8273 309.38C83.1617 309.38 84.2552 309.38 85.1077 309.38C86.8128 309.38 88.7403 309.38 90.8901 309.38C93.0771 309.343 95.0231 309.287 96.7282 309.213ZM88.2213 328.673C88.2213 328.673 88.2213 328.858 88.2213 329.229C88.2213 329.6 88.2213 329.785 88.2213 329.785H77.4349C77.4349 329.785 77.4349 329.6 77.4349 329.229C77.4349 328.858 77.4349 328.673 77.4349 328.673H88.2213ZM89.3889 321.334C89.2407 323.447 89.1665 325.059 89.1665 326.171C89.2036 327.283 89.2221 328.302 89.2221 329.229C89.2221 330.156 89.2407 331.175 89.2777 332.287C89.3148 333.399 89.4075 335.011 89.5557 337.124H88.2769C88.1287 335.901 87.9063 334.733 87.6097 333.621C87.3132 332.472 86.7757 331.546 85.9973 330.841C85.2189 330.137 84.0513 329.785 82.4945 329.785V328.673C83.6806 328.673 84.6073 328.432 85.2745 327.95C85.9788 327.468 86.5162 326.838 86.8869 326.06C87.2576 325.281 87.5171 324.484 87.6653 323.669C87.8507 322.816 87.9989 322.038 88.1101 321.334H89.3889Z" fill="#71717A"/>
<path d="M47.405 304.988V343.408C47.405 344.965 47.7016 346.021 48.2946 346.577C48.9248 347.133 49.9626 347.411 51.4083 347.411V348.579C50.7781 348.542 49.7958 348.505 48.4614 348.468C47.127 348.394 45.7926 348.357 44.4582 348.357C43.1238 348.357 41.7709 348.394 40.3994 348.468C39.065 348.505 38.0642 348.542 37.397 348.579V347.411C38.8426 347.411 39.8619 347.133 40.455 346.577C41.0851 346.021 41.4002 344.965 41.4002 343.408V311.66C41.4002 309.992 41.1222 308.769 40.5662 307.991C40.0102 307.175 38.9538 306.767 37.397 306.767V305.6C38.5831 305.711 39.7322 305.767 40.8442 305.767C42.0674 305.767 43.235 305.711 44.347 305.6C45.459 305.452 46.4784 305.248 47.405 304.988Z" fill="#71717A"/>
<path d="M19.3489 308.989L32.9154 343.906C33.4343 345.278 34.0274 346.204 34.6946 346.686C35.3989 347.168 36.0476 347.428 36.6406 347.465V348.577C35.751 348.503 34.6946 348.465 33.4714 348.465C32.2853 348.428 31.0806 348.41 29.8574 348.41C28.3006 348.41 26.855 348.428 25.5206 348.465C24.1861 348.465 23.1112 348.503 22.2957 348.577V347.465C24.1861 347.391 25.3723 347.075 25.8542 346.519C26.3731 345.926 26.2619 344.685 25.5206 342.794L15.5125 315.772L16.4021 314.772L7.17244 338.902C6.50524 340.57 6.0975 341.96 5.94924 343.072C5.83804 344.184 5.9307 345.055 6.22724 345.685C6.56084 346.316 7.11684 346.76 7.89525 347.02C8.67365 347.279 9.63739 347.428 10.7865 347.465V348.577C9.67446 348.503 8.54392 348.465 7.39484 348.465C6.28284 348.428 5.22643 348.41 4.22563 348.41C3.33602 348.41 2.53908 348.428 1.83481 348.465C1.16761 348.465 0.556003 348.503 0 348.577V347.465C0.778405 347.279 1.55681 346.816 2.33521 346.075C3.11362 345.333 3.85496 344.073 4.55923 342.294L17.4585 308.989C17.755 308.989 18.0701 308.989 18.4037 308.989C18.7373 308.989 19.0524 308.989 19.3489 308.989ZM25.187 332.564V333.676H8.61805L9.17406 332.564H25.187Z" fill="#71717A"/>
</svg>
