<svg width="625" height="119" viewBox="0 0 625 119" fill="none" xmlns="http://www.w3.org/2000/svg">
<path d="M61.7843 0.126195C61.5434 0.191287 61.017 0.40516 60.6244 0.591137C58.9025 1.41873 57.4482 1.88368 55.2267 2.32072C53.246 2.70198 51.3635 3.16692 50.6229 3.43658C49.6148 3.81784 48.8386 4.41296 47.7144 5.67761C46.7776 6.71908 46.2423 7.13753 45.5642 7.3421C45.4036 7.3886 44.3955 7.63966 43.3159 7.89073C40.3895 8.57885 39.765 8.85781 39.4884 9.57382C39.2386 10.2061 39.3367 11.4057 39.7561 13.1911C40.0416 14.3999 40.3717 15.1717 40.8981 15.8691C41.3442 16.455 42.2631 18.3798 42.3077 18.8169C42.3345 19.0865 42.3166 19.0958 41.4423 19.4492C36.7048 21.3276 34.3226 21.7181 33.2163 20.8161C32.5204 20.2489 32.3063 19.505 32.217 17.3198C32.1635 16.1109 32.1011 15.5716 32.0029 15.367C31.7977 14.9765 30.5486 13.7211 29.9776 13.3585C29.2639 12.8935 28.791 12.7261 28.2111 12.7261C26.9174 12.7261 26.4267 13.842 26.9977 15.4693C27.6133 17.2175 27.6758 17.4499 27.765 18.4914C27.9613 20.8068 28.3271 21.8111 29.3888 22.9084C30.7092 24.2846 32.5382 24.8983 34.9561 24.7867C37.0706 24.6938 38.9531 24.1451 41.5583 22.8526C42.2631 22.4992 42.9501 22.1831 43.0661 22.1552C43.2713 22.0994 43.2891 22.118 43.2267 22.3132C43.191 22.4341 42.9858 22.8898 42.7806 23.3268C42.2631 24.4055 41.9598 25.3168 41.8616 26.1072C41.7546 26.8883 41.5226 27.4276 40.9873 28.1064C40.0505 29.306 39.9702 30.0127 40.7285 30.3846C40.9516 30.4869 41.1657 30.5799 41.2193 30.5799C41.3442 30.5799 41.3263 30.7287 41.1925 30.8403C41.0497 30.9705 39.4616 31.5191 38.4981 31.7888C34.5189 32.8767 32.5025 32.9046 30.6646 31.9097C30.1918 31.6586 29.7903 31.3238 29.1301 30.6264C27.8007 29.2502 27.0245 27.9948 25.1866 24.3032C23.6342 21.1788 23.081 20.314 21.368 18.3519C20.3866 17.2268 19.9226 16.5852 19.5301 15.7855C19.2803 15.2833 19.2357 15.088 19.2267 14.5301C19.2267 13.6653 19.423 13.3585 20.4312 12.6796C22.171 11.508 23.0185 10.0295 23.0185 8.1511C23.0185 6.69118 22.51 5.51023 21.4037 4.40366C20.8505 3.85503 20.6453 3.70625 20.4312 3.70625C20.0654 3.70625 19.9762 3.92942 19.9048 5.09178C19.8334 6.17974 19.762 6.38432 19.3338 6.70978C19.0661 6.93295 18.3524 7.3328 18.2453 7.3328C18.2186 7.3328 18.2007 7.23051 18.2007 7.10963C18.2007 6.09606 17.4245 5.30565 15.8275 4.67333C14.7301 4.24558 13.6327 4.04101 12.3569 4.04101C11.0899 4.03171 10.5546 4.1526 9.64459 4.63614C9.04682 4.943 8.80593 5.20337 8.88623 5.41724C8.92192 5.51023 9.44831 5.83569 10.0639 6.14255C10.6706 6.44941 11.313 6.83066 11.4825 6.98874C11.8483 7.3235 12.4104 8.28128 12.7137 9.09958C12.9725 9.7877 12.9903 10.0295 12.794 10.0295C12.6513 10.0295 12.4639 9.84349 11.4557 8.69973C11.1524 8.36497 10.8044 8.03951 10.6706 7.98372C10.0372 7.74195 8.44905 8.03951 6.90556 8.70903C5.4156 9.35065 4.42527 10.327 4.64832 10.9315C4.77322 11.2941 5.2104 11.4336 6.44162 11.5266C7.53902 11.601 8.02972 11.7312 8.02972 11.9729C8.02972 12.1031 8.68995 12.7354 9.20742 13.1074C9.49292 13.312 9.72489 13.4979 9.72489 13.5165C9.72489 13.5723 9.26095 13.4793 8.52043 13.2748C8.1814 13.1725 7.79775 13.0981 7.66393 13.0981C7.34274 13.0981 6.8788 13.4421 5.95092 14.372C5.09441 15.2368 4.85352 15.3763 4.05947 15.4693C2.97992 15.6088 2.92639 16.1481 3.89888 17.1059C4.48772 17.6917 5.00519 18.0451 6.2275 18.6681C7.45872 19.3097 7.86913 19.4585 8.16355 19.3841C8.27954 19.3562 8.68102 19.0586 9.05574 18.7239C9.43046 18.3891 9.79626 18.1195 9.85872 18.1195C9.92117 18.1195 10.1353 18.3054 10.3405 18.5379C10.7688 19.0215 10.8134 19.3934 10.5368 19.9699C10.1175 20.8161 9.12712 21.4299 7.95835 21.5693C6.63791 21.7274 6.11151 22.0343 6.00445 22.7038C5.87954 23.5128 6.72712 24.4892 8.28846 25.3168C8.8327 25.605 9.30556 25.9119 9.35017 25.9956C9.45723 26.1816 9.37693 26.4791 9.07359 27.1115C8.27062 28.7573 8.3063 30.8868 9.13604 31.3052C9.47507 31.4819 9.70704 31.3982 10.278 30.9054C10.5457 30.6822 11.0007 30.3846 11.2862 30.2452C11.9375 29.9476 12.9011 29.8453 13.1598 30.0499C13.3115 30.1708 13.3204 30.2173 13.2134 30.4218C13.142 30.552 12.7762 31.0542 12.3925 31.5284C11.6074 32.4955 11.0899 33.351 11.0096 33.8159C10.9383 34.1972 11.1613 34.4854 11.5093 34.4854C11.768 34.4854 12.2766 34.8202 13.5256 35.8059C13.9628 36.1499 14.6855 36.6335 15.1405 36.8752C15.5955 37.117 15.9702 37.3681 15.9702 37.4239C15.9702 37.4797 15.7115 38.1027 15.3903 38.8094C14.2126 41.441 14.4089 41.785 17.6208 42.7614C18.852 43.1334 18.9145 43.2171 18.4416 43.8122C17.7368 44.7142 17.5762 45.5139 17.9509 46.2113C18.2899 46.8343 19.2267 47.3178 20.1189 47.3178C21.4483 47.3178 22.3048 48.0897 22.3048 49.2892C22.3048 50.061 21.9925 50.6375 21.0914 51.5302C20.4401 52.1718 19.8959 52.8972 19.8959 53.111C19.8959 53.3156 20.226 53.4551 20.7078 53.4551C21.2074 53.4551 21.2342 53.4644 21.2342 53.6876C21.2342 53.8084 21.1539 54.1339 21.0468 54.4036C20.681 55.3892 18.9234 59.0065 18.513 59.6388C18.058 60.3269 17.9598 60.4478 17.0141 61.6009C16.1933 62.5866 15.6044 63.5257 14.6944 65.3297C13.2758 68.138 11.7948 70.0535 10.6349 70.5836C10.0104 70.8718 9.79626 70.7137 9.68028 69.8676C9.54645 68.8912 8.88623 68.0543 7.82452 67.4963C7.10184 67.1244 6.46839 67.1058 6.0669 67.4592L5.79032 67.7102L5.05873 67.3476C4.34497 67.0035 4.30036 66.9942 3.30111 66.9849C2.5249 66.9849 2.1591 67.0314 1.79331 67.1616C1.31152 67.3383 0.624534 67.8869 0.624534 68.1008C0.624534 68.2868 0.910035 68.482 1.47212 68.6587C2.65873 69.0307 3.30111 69.5514 3.30111 70.1465C3.30111 70.5371 3.00669 70.9183 2.3197 71.4019C1.61487 71.904 1.04386 72.6107 0.633456 73.4941C0.18736 74.4426 0 75.2609 0 76.2187C0 77.3996 0.115985 77.4554 1.60594 77.0277C2.16803 76.8696 3.0513 76.8417 3.31003 76.9812C3.53308 77.1114 3.52416 77.3252 3.28326 77.7251C2.59628 78.906 2.47137 79.5291 2.74795 80.4868C3.07806 81.612 4.31821 83.1742 5.05873 83.3881C5.63865 83.5555 5.8617 83.3602 6.41486 82.2071C7.02155 80.9518 7.53902 80.4868 8.23493 80.5891C8.58288 80.6449 9.29664 81.3609 9.70704 82.0955C9.93901 82.4861 10.1353 82.7279 10.2959 82.793C10.849 82.9975 12.0624 82.3559 12.9546 81.3702C13.5613 80.71 13.8825 80.1428 14.0074 79.5198C14.0609 79.2594 14.168 78.9804 14.2483 78.9153C14.3464 78.8316 14.8193 78.7852 15.7383 78.748C16.8357 78.7108 17.139 78.6736 17.3353 78.5341C17.487 78.4318 17.7457 78.0226 18.0133 77.4647C18.2542 76.9626 18.513 76.4976 18.5933 76.4325C18.7182 76.3303 18.8342 76.4046 19.4319 76.9905C20.3598 77.9018 20.9843 78.2272 21.8141 78.2272C23.0364 78.2365 23.7769 77.4926 24.1427 75.8932C24.2587 75.3911 24.2765 74.9726 24.2319 73.8382C24.2052 73.0664 24.2141 72.4247 24.2587 72.4247C24.3033 72.4247 24.5353 72.5921 24.7851 72.7967C25.2936 73.2244 25.9092 73.5313 26.2215 73.5406C26.5695 73.5406 27.1762 73.1872 27.426 72.8432C28.0416 72.0063 28.2736 70.9741 28.3628 68.7703C28.3985 67.8125 28.4698 66.9849 28.5144 66.9384C28.5769 66.8733 28.8267 67.0128 29.2639 67.3569C29.6297 67.6451 30.1204 67.9334 30.3702 68.0078C30.9858 68.2031 32.4847 68.1845 33.0468 67.9799C33.8408 67.6916 33.8497 67.1988 33.1003 65.8598C32.333 64.4928 32.4222 63.6559 33.3501 63.5257C33.9033 63.4513 34.5189 63.721 35.5271 64.4835C36.6066 65.3111 37.6148 65.8969 38.8996 66.4549C40.7999 67.2732 42.6468 67.8404 44.4579 68.1566C45.0557 68.2589 45.5642 68.3611 45.6088 68.389C45.9033 68.575 45.4036 68.9191 44.2973 69.291C42.1739 70.007 39.4973 70.4999 37.1062 70.6115C35.1434 70.6952 33.9568 71.1508 32.9665 72.1923C31.9405 73.2709 31.4854 74.5821 31.4765 76.4697C31.4676 78.3574 31.8869 80.0963 32.8683 82.235C33.7962 84.2436 34.7509 85.7128 36.5709 87.9073C37.7843 89.3672 38.4624 90.3529 38.8103 91.1433C39.7204 93.2449 39.0958 94.8536 36.2141 97.7641C34.8936 99.0938 33.8051 99.9586 32.6542 100.591C31.6639 101.13 30.968 101.344 30.1828 101.344C29.3888 101.344 28.9962 101.149 28.4252 100.47C27.6133 99.503 26.4802 99.0845 24.7137 99.0845C22.6795 99.0938 21.1717 99.7448 20.6899 100.833C20.3241 101.66 20.5293 101.846 21.6535 101.688C22.7777 101.539 23.1524 101.781 23.2594 102.739C23.3219 103.334 23.5806 103.669 24.2408 104.059C24.8386 104.413 24.8743 104.469 24.4996 104.543C24.0892 104.627 23.8037 104.552 23.0632 104.152C22.4743 103.836 22.394 103.818 21.591 103.818C20.2171 103.827 19.2446 104.348 19.0215 105.194C18.968 105.389 18.6825 105.966 18.3881 106.486C17.5583 107.956 17.4156 108.541 17.7635 109.006C18.0044 109.323 18.4148 109.323 19.1375 109.016C19.4319 108.886 19.7531 108.783 19.8602 108.783C19.9583 108.783 20.3241 108.969 20.6632 109.192C21.3234 109.639 21.7338 109.778 22.6884 109.862C23.1434 109.899 23.3576 109.973 23.536 110.132C23.768 110.336 23.768 110.373 23.7769 111.443C23.7858 112.382 23.8215 112.605 23.9821 112.931C24.2587 113.488 24.6513 113.805 25.0795 113.805C25.3829 113.805 25.5078 113.73 26.0609 113.2C26.7925 112.503 27.0423 112.345 27.5776 112.261C27.7918 112.224 28.1933 112.094 28.4609 111.973C29.4691 111.498 29.5672 111.48 29.8617 111.657C30.0044 111.75 30.3524 112.103 30.6468 112.447C30.9323 112.791 31.3338 113.172 31.53 113.293C32.3152 113.767 33.1182 113.674 33.7873 113.033C34.5189 112.326 34.7955 111.498 34.7955 109.927C34.7955 109.23 34.8312 108.867 34.9025 108.82C35.0988 108.69 35.4646 109.313 35.8572 110.429C36.8564 113.256 37.4631 113.284 39.3992 110.578C39.8185 110.001 40.2289 109.49 40.3092 109.443C40.4341 109.369 40.6126 109.425 41.0587 109.667C42.7271 110.578 43.3784 109.983 44.1635 106.784C44.4668 105.547 44.6274 105.185 44.9397 105.036C45.136 104.943 45.1895 104.961 45.3233 105.138C45.5107 105.38 45.6802 106.105 45.6802 106.691C45.6802 107.612 46.4029 108.876 46.9293 108.876C47.7679 108.876 48.8921 105.994 48.8921 103.827C48.8921 102.804 48.9635 102.627 49.2847 102.832C49.4006 102.906 49.6861 103.092 49.9181 103.241C50.5159 103.622 50.9085 103.753 51.533 103.762C51.9523 103.762 52.1486 103.715 52.3806 103.548C52.8088 103.25 52.898 102.925 52.6928 102.386C52.1486 100.954 52.5412 99.7355 54.0222 98.229C54.8519 97.3828 54.959 97.2434 55.0928 96.7505C55.307 95.9787 55.2445 94.9558 54.9322 94.2491C54.5843 93.4401 53.8527 92.7055 52.8802 92.1755C51.3992 91.3479 51.0958 90.8272 51.64 90.0368C51.988 89.5346 52.6036 88.9767 52.8088 88.9767C52.898 88.9767 53.3531 89.2835 53.8259 89.6648C54.9501 90.5575 55.762 91.0968 57.5017 92.0918C59.4646 93.217 60.5798 94.0074 61.3828 94.835C61.7575 95.2255 62.2482 95.6812 62.4891 95.8485C63.1582 96.3321 64.4073 96.8993 66.156 97.5223C69.5463 98.7405 70.8311 99.3728 71.5181 100.163C72.2586 101.028 72.4549 102.228 72.098 103.697C71.875 104.599 71.7233 104.896 71.1612 105.51C70.4118 106.356 68.556 107.481 67.9315 107.481C67.5746 107.481 67.2445 107.109 66.7895 106.207C66.3434 105.324 65.7813 104.692 65.1211 104.32C64.6571 104.069 64.4698 104.013 63.9791 104.013C63.3188 104.004 62.8906 104.171 62.1144 104.72C61.8556 104.906 61.4095 105.129 61.1151 105.212C60.1962 105.482 58.8846 106.812 58.8846 107.481C58.8846 107.965 59.5359 108.318 60.4103 108.318C61.1151 108.318 61.6504 108.83 61.6504 109.518C61.6504 109.778 61.5791 109.908 61.24 110.215C60.2675 111.117 59.9999 111.443 59.7858 111.991C59.6698 112.298 59.3218 113.033 59.0096 113.619C58.2958 114.995 58.1441 115.497 58.1887 116.315C58.2333 117.106 58.4564 117.431 58.9739 117.431C59.3575 117.431 59.5359 117.31 60.3835 116.483C61.0794 115.804 61.2936 115.72 61.7218 116.008C61.927 116.157 62.1501 116.176 63.3724 116.157C64.1664 116.139 64.8623 116.176 64.9515 116.222C65.0408 116.269 65.2906 116.641 65.5136 117.041C66.272 118.408 67.0393 119.086 67.6995 118.984C68.101 118.91 68.3062 118.705 68.6185 118.054C68.7701 117.747 69.127 117.264 69.4482 116.938C69.7605 116.622 70.0995 116.185 70.2066 115.971C70.6348 115.079 71.295 115.832 71.4289 117.357C71.5002 118.203 71.6073 118.417 71.9285 118.333C72.4638 118.184 74.5961 115.99 74.9887 115.162C75.301 114.511 75.2742 114.214 74.8549 113.563C74.498 113.014 74.3909 112.596 74.6229 112.596C74.7835 112.596 75.1404 112.884 75.8809 113.619C76.2288 113.963 76.6839 114.335 76.898 114.456C77.8883 114.976 78.7805 114.288 78.7805 112.996C78.7805 112.838 78.8162 112.679 78.8697 112.642C78.9143 112.614 79.1552 112.698 79.414 112.828C79.7173 112.996 79.9493 113.061 80.092 113.014C80.9842 112.782 82.4117 111.071 82.7597 109.834C82.956 109.118 83.1076 108.979 83.7322 108.913C85.0883 108.755 85.5879 107.928 84.9723 106.868C84.4638 105.994 84.4013 105.854 84.4013 105.51C84.4013 105.064 84.7582 104.217 85.0526 103.976C85.2221 103.836 85.5166 103.762 86.2303 103.687C87.3009 103.576 87.747 103.39 88.0058 102.934C88.2199 102.553 88.095 102.181 87.7649 102.181C87.4526 102.181 87.1225 101.874 86.9619 101.419C86.6675 100.61 86.3285 97.8943 86.5069 97.792C86.5515 97.7641 86.9084 97.885 87.3009 98.071C88.0861 98.4336 88.8355 98.5638 88.9515 98.3685C89.0764 98.1639 88.9426 97.6153 88.5946 96.8156C88.1931 95.9229 87.863 95.4022 87.1939 94.6211C86.0876 93.3285 85.6236 92.3522 85.5255 91.041C85.4006 89.4974 85.0259 88.8465 83.9731 88.3072C83.4021 88.0189 83.3307 88.0003 82.3939 88.0096C81.582 88.0096 81.3233 88.0468 80.9218 88.2235C79.637 88.7814 79.53 88.8093 78.9143 88.8186C78.1024 88.8186 77.4779 88.6698 76.5768 88.2328C74.6586 87.3029 72.7939 85.4431 71.8928 83.5555C71.3842 82.4954 71.2772 82.049 71.1434 80.5147C71.0274 79.1199 71.0095 79.0455 70.6616 78.3574C70.4653 77.9576 70.3047 77.6042 70.3047 77.5763C70.3047 77.474 70.5277 77.6042 71.2058 78.1156C71.5805 78.3946 72.7225 79.0641 73.7486 79.6127C76.443 81.0448 76.7999 81.3795 77.7545 83.3788C78.3969 84.7085 78.9857 85.4059 79.8868 85.8709C80.4489 86.1498 80.6274 86.1963 81.2519 86.2149C81.9389 86.2335 82.2601 86.1312 82.2601 85.8988C82.2601 85.8523 82.0102 85.5268 81.698 85.1735C81.011 84.3924 80.8593 83.9739 81.0199 83.2672C81.1627 82.6256 81.5909 81.6399 81.7604 81.5748C81.8407 81.5469 82.1262 81.6957 82.4563 81.9375C83.9106 83.0161 86.2035 83.946 87.7649 84.0948C88.5143 84.1599 89.1656 84.0576 89.2013 83.853C89.2192 83.7693 88.9604 83.3509 88.6303 82.9231C87.8898 81.9468 87.6132 81.3702 87.6132 80.7379C87.6132 80.1149 87.8719 79.7057 88.4519 79.4082C89.576 78.8223 91.1641 79.2036 92.547 80.366C93.4928 81.175 94.0102 81.0262 94.2065 79.8917C94.3493 79.1013 94.1173 78.1621 93.5195 77.1764C93.0467 76.386 93.0645 76.321 93.9835 75.5027C94.4206 75.1214 94.9559 74.5542 95.179 74.238C96.5351 72.3225 97.2489 69.5514 97.1329 66.6409C97.0704 65.0601 96.9009 64.2046 96.2318 62.103C95.9641 61.2568 95.6965 60.2525 95.6429 59.862C95.4823 58.8484 95.634 58.4393 96.4816 57.4815C97.2667 56.5795 97.5611 56.1518 98.0429 55.1475C98.8102 53.5667 99.2563 51.7534 99.1939 50.5631C99.1671 50.0145 99.1225 49.8843 98.9262 49.6705C98.7032 49.438 98.6764 49.438 98.3909 49.5496C97.9448 49.7448 96.6868 51.1118 96.4191 51.6976C96.1872 52.209 95.6251 52.953 94.3493 54.4315C92.556 56.5144 92.0474 57.5838 91.9225 59.5923C91.8333 60.8849 91.8154 60.9035 90.7626 60.3548C88.6392 59.239 87.3902 59.0251 83.3307 59.053C80.8772 59.0716 80.3062 59.053 79.6103 58.9135C78.1292 58.6252 76.8266 58.1045 76.2645 57.5931C75.8809 57.249 75.5686 56.7097 75.5686 56.4121C75.5686 55.817 76.2735 54.915 76.9872 54.5895C77.3798 54.4129 78.3344 54.4036 81.6801 54.5152C83.4556 54.5709 84.3478 54.5709 85.0705 54.4873C87.6846 54.1804 89.2816 53.5388 90.4504 52.3299C91.1374 51.6139 91.4675 51.0188 91.985 49.4938C92.7612 47.2249 93.3589 46.1834 94.2868 45.5139C94.4831 45.3744 95.0987 45.0489 95.6608 44.7886C96.2139 44.5375 96.8028 44.2213 96.9634 44.0911C98.0072 43.2728 97.4987 42.6126 95.7411 42.5103C93.8675 42.3988 92.3597 42.9753 90.9946 44.3236C90.156 45.1419 89.6385 45.8858 88.7106 47.5968C87.5329 49.7448 86.7656 50.4609 85.3203 50.7584C84.9277 50.8421 84.1604 50.8607 82.6883 50.8142C76.4073 50.6375 75.64 50.6375 74.7657 50.7956C73.8556 50.963 73.0259 51.3164 72.5619 51.7441C72.1426 52.1347 71.7054 52.953 71.3218 54.0781C71.0184 54.9615 70.9738 55.0452 70.9203 54.8127C70.8311 54.4687 70.9738 52.8786 71.1344 52.3206C71.3307 51.6697 71.6608 51.1397 72.1605 50.6468C73.2489 49.5868 74.8281 49.1776 77.8616 49.1776C82.3314 49.1776 84.5619 48.5732 86.5247 46.8529C87.069 46.3787 87.4259 45.9881 89.6028 43.4588C91.0749 41.7571 91.6638 41.3294 93.4125 40.7157C95.0809 40.1298 96.4013 39.2093 96.9455 38.2422C97.24 37.7214 97.2756 36.9403 97.0169 36.7451C96.7849 36.5684 96.5797 36.5963 95.7322 36.9124C94.4831 37.3867 93.9121 37.5262 91.2712 38.0283C89.576 38.3445 89.0853 38.642 87.2206 40.5111C85.2311 42.501 84.5352 43.0962 83.7411 43.5146C82.376 44.212 81.6355 44.305 76.327 44.4259C73.588 44.491 72.6601 44.5375 72.3389 44.6491C72.1069 44.7235 71.5627 45.021 71.1344 45.3093C70.4385 45.7649 70.037 45.9416 70.037 45.7835C70.037 45.5697 70.5099 44.8537 70.9471 44.4166C72.2764 43.0776 74.8727 42.2872 79.5389 41.785C81.1984 41.6084 81.7604 41.5154 82.6437 41.2736C84.4727 40.7715 86.2482 39.7858 87.6578 38.4932C88.5946 37.6377 88.9693 37.4611 92.8325 36.1592C93.4749 35.9454 94.2868 35.6199 94.6526 35.4525C96.0087 34.8016 96.2407 34.3832 95.4199 34.0949C94.5188 33.7787 90.1381 33.9368 88.6392 34.346C87.3723 34.69 86.6853 35.0434 84.7582 36.3359C82.724 37.7028 81.7961 38.1678 80.5471 38.4374C80.0207 38.5583 79.3426 38.5862 76.9069 38.5583C73.6147 38.5304 73.9091 38.4932 72.3835 39.1535C72.1248 39.265 71.8839 39.3301 71.8571 39.2929C71.759 39.1907 72.3478 38.5304 73.017 37.9818C73.9805 37.2007 75.3545 36.3173 76.6839 35.6478C78.4326 34.7551 79.0839 34.5319 81.5463 33.9275C88.5768 32.2165 93.5552 29.6407 96.5173 26.1816C99.069 23.2059 100.22 19.5515 100.077 14.8649C100.024 13.0237 99.8898 12.1589 99.4615 10.8199C97.8199 5.7241 92.5113 2.5253 86.1857 2.81356C84.1961 2.89725 82.7151 3.20411 81.011 3.86433C76.666 5.55672 73.8913 8.75553 73.1062 12.9586C73.0348 13.3678 72.9367 14.6417 72.8831 15.7948C72.785 18.073 72.6244 19.1237 72.214 20.0815C71.5538 21.6158 70.4921 21.6623 68.8683 20.2303C67.6817 19.1795 67.3783 19.0401 67.182 19.4213C67.0125 19.7561 67.066 21.6251 67.2712 22.3132C67.6192 23.5128 68.4668 24.5078 69.4839 24.9076C70.4653 25.2982 71.2237 25.2331 72.4281 24.6566C73.2489 24.266 73.4898 24.2474 73.8824 24.5543C74.0519 24.6845 74.7389 25.0936 75.417 25.4749C77.0854 26.3954 77.4422 26.8511 77.1567 27.7438C76.9783 28.2924 76.5857 28.5342 75.8452 28.5342C75.0868 28.5342 74.5248 28.2645 73.8021 27.5764C72.901 26.7116 72.3567 26.5442 72.0088 27.0092C71.7322 27.3811 71.75 28.3854 72.0355 28.9805C72.6244 30.1894 74.1768 30.9891 75.9701 30.9891C77.4422 30.9891 78.5932 30.5799 79.4407 29.743C81.4839 27.7345 81.0734 24.0428 78.4415 20.751C78.1917 20.4442 77.9062 20.0443 77.7991 19.8676C77.4244 19.226 77.5582 19.2632 78.7984 20.128C79.8333 20.8626 80.9396 21.4671 82.2422 22.0157C83.6608 22.6015 84.7582 23.5593 85.0348 24.4148C85.1865 24.9076 85.0883 25.8003 84.8207 26.3582C84.6957 26.6186 84.3389 27.1579 84.0177 27.5671C83.3664 28.3947 83.2058 28.683 83.295 28.8224C83.3753 28.9619 83.9017 28.8689 84.785 28.5435C88.2556 27.2881 89.9061 24.6566 88.782 22.1645C88.2288 20.9277 87.3812 20.128 85.5433 19.0958C84.9991 18.789 84.5352 18.4914 84.5173 18.4356C84.4905 18.3705 84.9277 18.3147 85.8556 18.2682C87.4169 18.1939 88.0682 18.1009 88.8444 17.8498C91.182 17.0687 92.8147 15.3577 93.1359 13.3492C93.3411 12.0752 92.9574 10.9408 91.9493 9.88069C91.066 8.9508 90.6467 8.79272 89.0853 8.78342C87.747 8.77412 87.3456 8.90431 87.1047 9.43434C86.7924 10.1132 87.1671 10.4572 88.3894 10.5874C89.2638 10.6804 89.7099 10.8943 90.0043 11.3313C90.5039 12.1031 89.9864 13.2283 88.8355 13.8606C88.3002 14.1582 87.1582 14.1489 86.4088 13.842C84.553 13.0981 83.3307 11.2197 83.6876 9.66681C83.8125 9.12748 84.3032 8.29058 84.8117 7.76985C85.8467 6.70048 87.3723 6.34712 89.0496 6.78417C91.405 7.40719 93.5998 9.37855 94.7507 11.9171C95.2593 13.033 95.4734 13.9629 95.527 15.3391C95.6519 18.3612 94.8935 21.1974 93.4125 23.2431C92.7522 24.1637 91.405 25.4563 90.3166 26.2095C89.2995 26.9255 87.069 28.0971 85.6504 28.6737C83.8036 29.4269 81.0734 30.3196 78.5575 30.9984C76.2199 31.6214 75.2385 31.984 73.7396 32.7652C70.9649 34.2158 68.7434 36.2522 67.0125 38.9489C63.8274 43.8959 63.2385 49.8657 65.4512 54.7569C66.388 56.8213 68.2616 59.1088 70.0281 60.3269C72.9277 62.3262 76.5857 63.2654 82.7954 63.5908C87.7827 63.8512 89.1835 64.0558 90.6913 64.7997C91.5835 65.2274 92.1723 65.7668 92.4846 66.4363C93.2162 68.0078 92.1634 71.0578 90.2719 72.8432C86.9887 75.949 81.243 76.2094 75.8809 73.4941C73.3025 72.1923 71.0541 70.2023 69.3768 67.7288C68.7255 66.7803 68.1099 66.0364 65.5404 63.098C62.8906 60.0666 61.6861 58.4858 60.785 56.8771C60.4727 56.3191 59.9464 55.4171 59.5984 54.8685C59.2594 54.3292 58.9739 53.827 58.9739 53.762C58.9739 53.6969 59.0988 53.5481 59.2504 53.4365C59.8125 53.0087 59.9107 52.3857 59.5895 51.3814C59.2504 50.3214 58.4118 49.0195 57.0557 47.4573C55.5032 45.672 54.7806 44.677 54.7806 44.3236C54.7806 44.0354 54.9055 44.1376 55.3516 44.8165C56.9397 47.2249 60.1248 49.4473 62.2482 49.6147C62.8727 49.6705 62.8995 49.6612 63.1582 49.3822C63.4884 49.0474 63.4884 48.9637 63.2831 47.4573C63.069 45.8579 63.0601 40.9574 63.2742 39.6928C63.6133 37.7028 64.1664 36.2708 64.8891 35.5176C65.3976 34.9783 65.6028 34.8853 66.6199 34.7179C68.6898 34.3646 70.7686 33.2394 71.4735 32.0863C71.9909 31.2401 71.7144 30.7101 70.6527 30.4962C69.1359 30.1894 68.4132 29.8546 67.7976 29.1851C66.611 27.8833 66.0579 25.6515 65.7456 20.9463C65.6564 19.5608 65.6564 19.2074 65.7545 18.9657C65.8973 18.603 65.9954 18.5472 66.7805 18.3984C68.1724 18.1381 69.1092 17.8312 70.1084 17.2826C71.295 16.6409 71.9106 15.9435 71.9106 15.2554C71.9106 14.8835 71.6251 14.5394 71.0452 14.1954C70.3671 13.7955 69.6712 13.1074 69.3768 12.5309C69.2341 12.2612 68.9396 11.5173 68.7344 10.885C68.208 9.29486 67.7441 8.48586 66.8251 7.51878C66.0846 6.73768 65.3263 6.14255 64.1486 5.43584C63.4527 5.00809 63.1672 4.75702 63.1672 4.53385C63.1672 4.44086 63.3099 4.05031 63.4794 3.65046C63.8988 2.68338 64.0594 2.09755 64.0594 1.47453C64.0594 0.265678 63.1582 -0.264357 61.7843 0.126195ZM49.7308 17.0966C49.9449 17.3756 50.1233 17.98 50.0163 18.0916C49.9449 18.166 45.8497 17.9428 45.243 17.8405C44.6988 17.7382 44.5204 17.6173 44.5204 17.3663C44.5204 17.1431 44.672 17.1431 45.2341 17.3756C45.8586 17.6359 46.046 17.608 46.394 17.2361C46.5635 17.0594 46.733 16.9106 46.7776 16.9106C46.8222 16.9106 47.0185 17.0594 47.2059 17.2361C47.4021 17.4128 47.6163 17.5615 47.6966 17.5615C47.7769 17.5615 48.0445 17.3942 48.2854 17.1896C48.6512 16.8827 48.8118 16.8176 49.1151 16.8176C49.4363 16.8176 49.5434 16.8641 49.7308 17.0966ZM46.2601 21.4113C46.4118 21.5321 46.4118 21.56 46.1798 22.3132C46.0371 22.741 45.8943 23.1315 45.8586 23.178C45.7694 23.271 44.788 21.7553 44.788 21.5414C44.788 21.4671 44.8148 21.3741 44.8505 21.3462C44.9575 21.2253 46.0906 21.2811 46.2601 21.4113ZM49.0348 21.402C49.1151 21.4763 48.4549 22.211 48.3122 22.211C48.2051 22.211 47.5538 21.5786 47.5538 21.4671C47.5538 21.4206 47.6252 21.3648 47.7144 21.3369C47.9285 21.2718 48.9635 21.3183 49.0348 21.402Z" fill="#051E3A"/>
<path d="M577.481 2.73145L614.763 102.31C616.189 106.221 617.819 108.864 619.652 110.238C621.587 111.612 623.37 112.352 625 112.458V115.629C622.555 115.418 619.652 115.312 616.291 115.312C613.031 115.206 609.72 115.153 606.359 115.153C602.081 115.153 598.108 115.206 594.441 115.312C590.774 115.312 587.82 115.418 585.579 115.629V112.458C590.774 112.246 594.034 111.348 595.358 109.762C596.784 108.071 596.478 104.53 594.441 99.1383L566.938 22.0762L569.383 19.2221L544.019 88.0388C542.185 92.7958 541.065 96.7599 540.658 99.9312C540.352 103.102 540.607 105.587 541.422 107.384C542.338 109.181 543.866 110.449 546.005 111.189C548.144 111.929 550.793 112.352 553.951 112.458V115.629C550.895 115.418 547.788 115.312 544.63 115.312C541.574 115.206 538.671 115.153 535.921 115.153C533.476 115.153 531.286 115.206 529.351 115.312C527.517 115.312 525.837 115.418 524.309 115.629V112.458C526.448 111.929 528.587 110.608 530.726 108.494C532.865 106.379 534.902 102.785 536.838 97.7112L572.286 2.73145C573.101 2.73145 573.967 2.73145 574.883 2.73145C575.8 2.73145 576.666 2.73145 577.481 2.73145ZM593.524 69.9626V73.1338H547.992L549.52 69.9626H593.524Z" fill="#051E3A"/>
<path d="M465.819 3.36523C484.663 3.36523 498.669 8.12215 507.837 17.636C517.005 27.0441 521.589 40.5749 521.589 58.2284C521.589 69.7507 519.348 79.8459 514.866 88.5141C510.384 97.0765 503.864 103.736 495.308 108.493C486.853 113.25 476.565 115.629 464.444 115.629C462.916 115.629 460.827 115.576 458.179 115.47C455.632 115.364 452.984 115.311 450.234 115.311C447.483 115.206 444.988 115.153 442.747 115.153C438.876 115.153 435.056 115.206 431.287 115.311C427.62 115.311 424.615 115.417 422.272 115.629V112.457C425.736 112.246 428.333 111.823 430.065 111.189C431.797 110.554 432.917 109.286 433.426 107.383C434.038 105.48 434.343 102.626 434.343 98.8207V20.173C434.343 16.2618 434.038 13.4076 433.426 11.6106C432.917 9.70779 431.746 8.43928 429.912 7.80502C428.18 7.06506 425.634 6.64222 422.272 6.53651V3.36523C424.615 3.47094 427.62 3.6295 431.287 3.84092C435.056 3.94663 438.774 3.94663 442.441 3.84092C446.108 3.73521 450.183 3.6295 454.665 3.5238C459.249 3.41809 462.967 3.36523 465.819 3.36523ZM463.221 6.21938C458.536 6.21938 455.48 7.11791 454.054 8.91497C452.628 10.712 451.915 14.359 451.915 19.8559V99.1379C451.915 104.635 452.628 108.282 454.054 110.079C455.582 111.876 458.688 112.774 463.374 112.774C473.662 112.774 481.658 110.713 487.363 106.59C493.067 102.362 497.091 96.2309 499.433 88.197C501.776 80.1631 502.948 70.3849 502.948 58.8626C502.948 47.0232 501.674 37.2451 499.128 29.5283C496.581 21.7058 492.405 15.8918 486.599 12.0862C480.894 8.175 473.102 6.21938 463.221 6.21938Z" fill="#051E3A"/>
<path d="M406.047 3.36523C405.64 7.38219 405.334 11.2934 405.131 15.099C405.029 18.7988 404.978 21.6529 404.978 23.6614C404.978 25.6699 405.029 27.5727 405.131 29.3697C405.233 31.1668 405.334 32.6467 405.436 33.8095H401.922C401.209 27.0441 400.088 21.7058 398.561 17.7945C397.134 13.8833 394.944 11.1349 391.99 9.54922C389.138 7.85787 385.115 7.0122 379.92 7.0122H369.377C366.117 7.0122 363.622 7.32933 361.89 7.96359C360.26 8.49213 359.14 9.65494 358.529 11.452C357.917 13.1433 357.612 15.8389 357.612 19.5388V99.455C357.612 103.049 357.917 105.745 358.529 107.542C359.14 109.339 360.26 110.554 361.89 111.189C363.622 111.717 366.117 111.982 369.377 111.982H379.309C385.115 111.982 389.699 111.03 393.06 109.127C396.523 107.225 399.121 104.106 400.852 99.7721C402.686 95.438 404.061 89.5183 404.978 82.013H408.492C408.187 85.0785 408.034 89.0955 408.034 94.0638C408.034 96.178 408.085 99.2436 408.187 103.261C408.39 107.277 408.696 111.4 409.103 115.629C403.908 115.417 398.051 115.311 391.532 115.311C385.013 115.206 379.207 115.153 374.114 115.153C371.771 115.153 368.766 115.153 365.099 115.153C361.432 115.153 357.459 115.206 353.181 115.311C349.004 115.311 344.726 115.364 340.346 115.47C336.068 115.47 331.942 115.523 327.97 115.629V112.457C331.433 112.246 334.031 111.823 335.762 111.189C337.494 110.554 338.614 109.286 339.124 107.383C339.735 105.48 340.04 102.626 340.04 98.8207V20.173C340.04 16.2618 339.735 13.4076 339.124 11.6106C338.614 9.70779 337.443 8.43928 335.609 7.80502C333.878 7.06506 331.331 6.64222 327.97 6.53651V3.36523C331.942 3.47094 336.068 3.57665 340.346 3.68236C344.726 3.68236 349.004 3.73521 353.181 3.84092C357.459 3.84092 361.432 3.84092 365.099 3.84092C368.766 3.84092 371.771 3.84092 374.114 3.84092C378.799 3.84092 384.096 3.84092 390.004 3.84092C396.014 3.73521 401.362 3.57665 406.047 3.36523ZM380.684 57.5941C380.684 57.5941 380.684 58.1227 380.684 59.1797C380.684 60.2368 380.684 60.7654 380.684 60.7654H353.028C353.028 60.7654 353.028 60.2368 353.028 59.1797C353.028 58.1227 353.028 57.5941 353.028 57.5941H380.684ZM385.115 36.6637C384.707 42.6891 384.504 47.2875 384.504 50.4587C384.605 53.63 384.656 56.537 384.656 59.1797C384.656 61.8225 384.707 64.7295 384.809 67.9008C384.911 71.072 385.166 75.6704 385.573 81.6958H382.059C381.549 78.2074 380.887 74.8776 380.072 71.7063C379.258 68.4293 377.781 65.7866 375.641 63.7781C373.604 61.7696 370.396 60.7654 366.015 60.7654V57.5941C369.275 57.5941 371.822 56.907 373.655 55.5328C375.591 54.1586 377.068 52.3615 378.086 50.1416C379.105 47.9217 379.818 45.649 380.225 43.3233C380.735 40.892 381.193 38.6721 381.6 36.6637H385.115Z" fill="#051E3A"/>
<path d="M316.106 3.36523V6.53651C312.643 6.64222 310.046 7.06506 308.314 7.80502C306.582 8.43928 305.411 9.70779 304.8 11.6106C304.29 13.4076 304.036 16.2618 304.036 20.173V98.8207C304.036 102.626 304.29 105.48 304.8 107.383C305.411 109.286 306.582 110.554 308.314 111.189C310.046 111.823 312.643 112.246 316.106 112.457V115.629C313.56 115.417 310.402 115.311 306.633 115.311C302.864 115.206 299.044 115.153 295.174 115.153C290.895 115.153 286.872 115.206 283.103 115.311C279.334 115.311 276.329 115.417 274.088 115.629V112.457C277.551 112.246 280.149 111.823 281.881 111.189C283.714 110.554 284.936 109.286 285.548 107.383C286.159 105.48 286.464 102.626 286.464 98.8207V12.0862L287.228 12.4034L249.641 116.263H247.196L207.775 13.5133V94.6981C207.775 99.1379 208.081 102.626 208.692 105.163C209.303 107.595 210.628 109.339 212.665 110.396C214.702 111.453 217.809 112.14 221.985 112.457V115.629C220.05 115.417 217.554 115.311 214.498 115.311C211.544 115.206 208.743 115.153 206.095 115.153C203.548 115.153 201.002 115.206 198.455 115.311C195.908 115.311 193.82 115.417 192.19 115.629V112.457C195.552 112.14 198.098 111.506 199.83 110.554C201.562 109.497 202.733 107.753 203.344 105.322C203.956 102.891 204.261 99.5607 204.261 95.3323V20.173C204.261 16.2618 203.956 13.4076 203.344 11.6106C202.733 9.70779 201.562 8.43928 199.83 7.80502C198.098 7.06506 195.552 6.64222 192.19 6.53651V3.36523C193.82 3.47094 195.908 3.57665 198.455 3.68236C201.002 3.78807 203.548 3.84092 206.095 3.84092C209.049 3.84092 212.003 3.78807 214.957 3.68236C218.013 3.57665 220.61 3.47094 222.749 3.36523L256.517 93.4296L253.614 95.4909L286.77 3.84092C288.094 3.84092 289.469 3.84092 290.895 3.84092C292.321 3.84092 293.748 3.84092 295.174 3.84092C299.044 3.84092 302.864 3.78807 306.633 3.68236C310.402 3.57665 313.56 3.47094 316.106 3.36523Z" fill="#051E3A"/>
<path d="M180.182 3.36523V6.53651C176.821 6.64222 174.274 7.06506 172.542 7.80502C170.811 8.43928 169.639 9.70779 169.028 11.6106C168.417 13.4076 168.111 16.2618 168.111 20.173V98.8207C168.111 102.626 168.417 105.48 169.028 107.383C169.639 109.286 170.811 110.554 172.542 111.189C174.274 111.823 176.821 112.246 180.182 112.457V115.629C177.737 115.417 174.63 115.311 170.862 115.311C167.195 115.206 163.426 115.153 159.555 115.153C155.277 115.153 151.253 115.206 147.484 115.311C143.817 115.311 140.812 115.417 138.469 115.629V112.457C141.933 112.246 144.53 111.823 146.262 111.189C147.993 110.554 149.114 109.286 149.623 107.383C150.234 105.48 150.54 102.626 150.54 98.8207V20.173C150.54 16.2618 150.234 13.4076 149.623 11.6106C149.114 9.70779 147.942 8.43928 146.109 7.80502C144.377 7.06506 141.831 6.64222 138.469 6.53651V3.36523C140.812 3.47094 143.817 3.57665 147.484 3.68236C151.253 3.78807 155.277 3.84092 159.555 3.84092C163.426 3.84092 167.195 3.78807 170.862 3.68236C174.63 3.57665 177.737 3.47094 180.182 3.36523Z" fill="#051E3A"/>
</svg>
